<?xml version="1.0" standalone="no"?>
<!DOCTYPE svg PUBLIC "-//W3C//DTD SVG 20010904//EN"
 "http://www.w3.org/TR/2001/REC-SVG-20010904/DTD/svg10.dtd">
<svg version="1.0" xmlns="http://www.w3.org/2000/svg"
 width="200.000000pt" height="200.000000pt" viewBox="0 0 200.000000 200.000000"
 preserveAspectRatio="xMidYMid meet">
<metadata>
Created by potrace 1.16, written by Peter Selinger 2001-2019
</metadata>
<g transform="translate(0.000000,200.000000) scale(0.100000,-0.100000)"
fill="#000000" stroke="none">
<path d="M572 1720 c-221 -58 -401 -235 -457 -450 -24 -91 -16 -270 15 -359
32 -89 108 -198 195 -278 144 -133 258 -183 433 -191 67 -3 137 0 173 7 68 14
179 59 179 73 0 5 -9 26 -20 48 l-20 38 -52 -25 c-86 -41 -196 -59 -287 -46
-79 12 -173 42 -207 67 -12 9 3 7 41 -6 93 -33 245 -30 348 5 89 31 157 71
157 92 0 10 -21 3 -72 -25 -141 -75 -282 -91 -425 -45 -191 61 -289 181 -318
388 -5 37 -3 47 8 47 16 0 27 21 27 50 0 9 7 24 17 31 15 13 15 10 9 -34 -7
-43 -5 -47 13 -47 14 0 21 9 26 33 4 17 9 39 11 48 6 21 -24 52 -42 45 -10 -4
-14 2 -14 18 0 14 -6 26 -12 29 -23 8 42 116 112 187 76 78 176 132 285 155
89 19 109 19 203 -1 180 -37 297 -144 347 -317 12 -43 14 -62 6 -70 -8 -8 -11
-4 -11 16 0 20 -5 27 -19 27 -15 0 -21 -12 -30 -62 -7 -35 -15 -74 -18 -86 -5
-20 -2 -23 18 -20 19 2 25 10 27 35 2 17 10 37 19 45 14 12 15 8 9 -33 -5 -36
-4 -48 8 -52 49 -19 50 110 2 258 -3 11 7 -7 24 -40 19 -39 32 -83 35 -120 3
-33 7 -67 11 -77 3 -10 -3 -24 -16 -35 l-21 -18 28 -5 c23 -4 30 -14 46 -63
21 -60 23 -62 47 -47 12 7 15 35 17 134 2 111 -1 132 -25 202 -40 117 -74 169
-186 280 -84 83 -116 108 -186 142 -145 72 -310 91 -458 52z m323 -26 c73 -19
108 -38 50 -27 -22 5 -94 8 -160 8 -96 0 -134 -4 -190 -22 -191 -61 -353 -219
-408 -400 -16 -53 -27 -73 -39 -73 -9 0 -19 -8 -21 -17 -2 -10 -2 5 1 32 20
210 202 422 426 495 99 32 226 34 341 4z"/>
<path d="M606 1169 c-26 -20 -34 -57 -20 -93 13 -34 104 -11 104 27 0 7 6 1
13 -13 7 -14 23 -26 35 -28 12 -2 20 -8 17 -13 -4 -5 -13 -5 -25 1 -24 13 -52
-16 -29 -31 8 -5 24 -9 37 -9 44 0 60 17 72 77 6 32 13 65 16 74 3 12 -5 18
-33 22 -42 7 -83 -13 -83 -41 -1 -15 -2 -14 -12 3 -13 24 -38 45 -54 45 -6 0
-23 -9 -38 -21z"/>
<path d="M1094 1183 c-29 -4 -31 -7 -44 -71 -7 -37 -15 -73 -18 -79 -2 -8 5
-13 22 -13 19 0 26 5 26 20 0 16 7 20 30 20 23 0 33 7 45 30 21 40 19 77 -4
90 -11 5 -21 9 -23 8 -2 0 -17 -3 -34 -5z"/>
</g>
</svg>
